<?xml version="1.0" encoding="UTF-8" standalone="no"?>
<!DOCTYPE svg PUBLIC "-//W3C//DTD SVG 1.1//EN" "http://www.w3.org/Graphics/SVG/1.1/DTD/svg11.dtd">
<!-- Created with Vectornator (http://vectornator.io/) -->
<svg height="100%" stroke-miterlimit="10" style="fill-rule:nonzero;clip-rule:evenodd;stroke-linecap:round;stroke-linejoin:round;" version="1.1" viewBox="0 0 1800 850" width="100%" xml:space="preserve" xmlns="http://www.w3.org/2000/svg" xmlns:vectornator="http://vectornator.io" xmlns:xlink="http://www.w3.org/1999/xlink">
<defs>
<linearGradient gradientTransform="matrix(1 0 0 1 0 0)" gradientUnits="userSpaceOnUse" id="LinearGradient" x1="942.543" x2="945.367" y1="617.083" y2="316.161">
<stop offset="0" stop-color="#db12cd"/>
<stop offset="0.570505" stop-color="#18cbf8"/>
<stop offset="0.979551" stop-color="#ff0202"/>
</linearGradient>
</defs>
<g id="Layer-1" vectornator:layerName="Layer 1">
<path d="M0 1.42109e-13L1800 1.42109e-13L1800 850L0 850L0 1.42109e-13Z" fill="#250e5c" fill-rule="nonzero" opacity="1" stroke="none" vectornator:layerName="Rectangle 1"/>
<path d="M282.329 93.9467L282.001 496.589C281.999 498.184 283.291 499.481 284.887 499.485L302.24 499.528C302.257 499.528 302.27 499.528 302.27 499.528L300.679 125.275C300.673 123.679 301.96 122.351 303.554 122.307L311.487 122.089C311.503 122.089 311.516 122.088 311.516 122.088L314.369 495.377C314.381 496.972 315.684 498.297 317.278 498.336L352.129 499.197C353.723 499.236 355.053 500.561 355.098 502.155L360.356 686.309C360.401 687.904 361.731 689.181 363.326 689.162L455.845 688.052C457.44 688.033 458.737 686.724 458.741 685.129L459.764 314.855C459.768 313.259 461.065 311.961 462.66 311.954L518.31 311.718C518.326 311.718 518.339 311.718 518.339 311.718L519.366 686.588C519.371 688.183 520.667 689.476 522.262 689.476L532.378 689.476C533.973 689.476 535.272 688.183 535.279 686.588L536.045 503.341C536.052 501.746 537.35 500.428 538.945 500.397L550.331 500.179C550.347 500.178 550.36 500.178 550.36 500.178L554.651 688.879C554.651 688.891 554.652 688.9 554.652 688.9L617.332 687.756C618.927 687.726 620.237 686.41 620.258 684.815L622.638 504.636C622.659 503.041 623.968 501.71 625.563 501.663L715.511 499.029C717.106 498.982 718.398 497.651 718.397 496.056L718.261 126.051C718.26 124.456 719.552 123.125 721.147 123.079L736.851 122.62C736.867 122.619 736.88 122.619 736.88 122.619L739.948 495.278C739.961 496.873 741.265 498.168 742.86 498.169L788.154 498.211C789.75 498.212 791.063 496.921 791.088 495.326L793.939 311.986C793.939 311.975 793.939 311.966 793.939 311.966L843.372 312.517C844.967 312.535 846.308 313.842 846.367 315.436L853.084 496.626C853.143 498.22 854.484 499.514 856.079 499.516L1024.42 499.76C1026.02 499.762 1027.32 498.471 1027.32 496.876L1028.01 314.937C1028.01 313.342 1029.31 312.046 1030.9 312.041L1046.99 311.999C1048.59 311.994 1049.91 313.284 1049.93 314.879L1053.2 497.174C1053.23 498.769 1054.55 500.071 1056.14 500.082L1143.54 500.707C1145.13 500.719 1146.46 502.021 1146.5 503.615L1151.4 685.933C1151.45 687.527 1152.77 688.872 1154.37 688.936L1180.83 689.999C1180.85 689.999 1180.86 690 1180.86 690L1184.52 504.954C1184.55 503.36 1185.86 501.923 1187.45 501.745L1224.47 497.599C1226.06 497.422 1227.38 495.985 1227.42 494.39L1232.11 314.652C1232.15 313.057 1233.48 311.771 1235.07 311.78L1316.47 312.201C1318.06 312.209 1319.39 313.509 1319.43 315.103L1323.92 495.883C1323.96 497.477 1325.29 498.761 1326.88 498.75L1459.17 497.843C1460.76 497.832 1462.07 496.53 1462.09 494.935L1464.32 313.578C1464.32 313.567 1464.32 313.558 1464.32 313.558L1489.63 313.807C1491.23 313.823 1492.54 315.129 1492.56 316.724L1495.41 497.538C1495.41 497.55 1495.41 497.559 1495.41 497.559L1522.85 496.424C1524.44 496.358 1525.73 495.012 1525.74 493.417L1525.96 311.334C1525.96 311.323 1525.96 311.314 1525.96 311.314L1581.87 311.945C1583.46 311.963 1584.77 313.27 1584.79 314.866L1586.96 499.883C1586.96 499.894 1586.96 499.903 1586.96 499.903L1637.36 497.56C1638.96 497.485 1640.25 496.132 1640.26 494.537L1642 90.0202C1642 90.0091 1642 90 1642 90L1634.11 90.6382C1632.52 90.7667 1631.23 92.1641 1631.23 93.7592L1631.31 466.069C1631.31 466.08 1631.31 466.089 1631.31 466.089L1602.37 465.745C1600.77 465.726 1599.45 464.418 1599.41 462.823L1595.15 285.681C1595.11 284.087 1593.79 282.771 1592.2 282.744L1516.51 281.423C1516.5 281.423 1516.48 281.423 1516.48 281.423L1515.08 467.483C1515.08 467.494 1515.08 467.503 1515.08 467.503L1506.07 466.685C1504.48 466.541 1503.16 465.131 1503.12 463.537L1498.47 284.367C1498.42 282.772 1497.1 281.489 1495.5 281.501L1456.1 281.798C1454.51 281.81 1453.19 283.113 1453.16 284.708L1449.43 468.419C1449.43 468.43 1449.43 468.439 1449.43 468.439L1338.56 466.91C1336.97 466.888 1335.63 465.578 1335.58 463.984L1329.64 284.899C1329.59 283.305 1328.25 281.999 1326.66 281.982L1220.23 280.853C1220.22 280.853 1220.2 280.853 1220.2 280.853L1218.19 465.733C1218.17 467.328 1216.86 468.693 1215.27 468.781L1178.39 470.826C1176.8 470.914 1175.49 472.279 1175.47 473.874L1173.38 658.598C1173.38 658.609 1173.38 658.618 1173.38 658.618L1163.45 658.383C1161.86 658.345 1160.52 657.022 1160.47 655.428L1154.75 475.306C1154.7 473.711 1153.37 472.354 1151.77 472.275L1065.45 467.969C1063.85 467.89 1062.52 466.533 1062.47 464.939L1056.58 280.072C1056.58 280.06 1056.58 280.051 1056.58 280.051L1020.19 281.459C1018.6 281.52 1017.28 282.863 1017.25 284.458L1013.71 465.737C1013.68 467.332 1012.36 468.634 1010.76 468.646L867.091 469.695C865.496 469.707 864.137 468.425 864.056 466.832L854.836 285.565C854.755 283.972 853.397 282.649 851.802 282.61L785.744 280.982C785.728 280.982 785.715 280.982 785.715 280.982L781.294 470.322C781.294 470.333 781.294 470.342 781.294 470.342L752.613 469.549C751.018 469.505 749.706 468.176 749.683 466.581L744.186 95.6643C744.163 94.0693 742.851 92.7242 741.258 92.66L710.347 91.4139C710.331 91.4133 710.318 91.4128 710.318 91.4128L707.083 466.508C707.069 468.103 705.765 469.414 704.17 469.436L619.22 470.607C617.625 470.629 616.294 471.939 616.247 473.534L610.834 656.444C610.787 658.038 609.455 659.329 607.86 659.325L565.156 659.244C563.561 659.241 562.224 657.946 562.17 656.351L556.013 475.315C555.959 473.721 554.621 472.424 553.026 472.418L533.407 472.348C531.812 472.343 530.509 473.631 530.497 475.226L529.107 656.958C529.094 658.553 527.792 659.888 526.198 659.939L526.195 659.939C526.179 659.94 526.166 659.94 526.166 659.94L521.807 281.968C521.807 281.957 521.807 281.948 521.807 281.948L451.333 282.345C449.738 282.354 448.45 283.655 448.456 285.25L449.864 659.305C449.864 659.317 449.864 659.326 449.864 659.326L372.648 659.079C371.053 659.074 369.699 657.779 369.623 656.185L361.011 475.224C360.935 473.631 359.583 472.261 357.99 472.166L321.527 469.977C319.935 469.882 318.642 468.511 318.64 466.916L318.094 94.7698C318.092 93.1746 316.797 91.8588 315.202 91.8309L295.34 91.4826C295.324 91.4823 295.311 91.4821 295.311 91.4821L294.983 470.51C294.983 470.521 294.983 470.53 294.983 470.53L290.552 470.164C288.962 470.033 287.675 468.633 287.677 467.038L288.176 93.9787C288.178 92.3835 286.886 91.0833 285.291 91.0746L285.219 91.0742C283.624 91.0655 282.33 92.3515 282.329 93.9467Z" fill="url(#LinearGradient)" fill-rule="nonzero" opacity="1" stroke="none" vectornator:layerName="Curve 1"/>
<path d="M80 750L1760 751" fill="none" opacity="1" stroke="#dddddd" stroke-linecap="round" stroke-linejoin="round" stroke-opacity="0.8" stroke-width="10" vectornator:layerName="Line 1"/>
<g fill="#dddddd" opacity="0.8" stroke="none" vectornator:layerName="Text 1">
<path d="M41.06 80.8L37.54 70.76L34.02 80.8L41.06 80.8ZM43.14 86.76L31.94 86.76L30.14 92L21.78 92L33.26 61.84L41.82 61.84L53.3 92L44.94 92L43.14 86.76Z"/>
<path d="M60.42 61.84L65.62 81.32L72.02 61.84L78.26 61.84L84.66 81.32L89.86 61.84L98.06 61.84L89.06 92L81.06 92L75.14 74.52L69.22 92L61.22 92L52.22 61.84L60.42 61.84Z"/>
<path d="M116.02 80.8L112.5 70.76L108.98 80.8L116.02 80.8ZM118.1 86.76L106.9 86.76L105.1 92L96.74 92L108.22 61.84L116.78 61.84L128.26 92L119.9 92L118.1 86.76Z"/>
<path d="M139.54 74.28L149.1 61.84L158.78 61.84L146.82 76.12L159.9 92L149.74 92L139.54 78.92L139.54 92L131.7 92L131.7 61.84L139.54 61.84L139.54 74.28Z"/>
<path d="M180.54 68.48L171.22 68.48L171.22 73.52L180.02 73.52L180.02 80.16L171.22 80.16L171.22 85.36L180.54 85.36L180.54 92L163.38 92L163.38 61.84L180.54 61.84L180.54 68.48Z"/>
</g>
<g fill="#dddddd" opacity="0.8" stroke="none" vectornator:layerName="Text 2">
<path d="M32.5 275.32L33.98 275.32C35.5267 275.32 36.7133 275 37.54 274.36C38.3667 273.72 38.78 272.8 38.78 271.6C38.78 270.4 38.3667 269.48 37.54 268.84C36.7133 268.2 35.5267 267.88 33.98 267.88L32.5 267.88L32.5 275.32ZM49.74 292L39.98 292L32.5 280.4L32.5 292L24.66 292L24.66 261.84L36.86 261.84C38.54 261.84 40.0067 262.087 41.26 262.58C42.5133 263.073 43.5467 263.747 44.36 264.6C45.1733 265.453 45.7867 266.44 46.2 267.56C46.6133 268.68 46.82 269.88 46.82 271.16C46.82 273.453 46.2667 275.313 45.16 276.74C44.0533 278.167 42.42 279.133 40.26 279.64L49.74 292Z"/>
<path d="M70.18 268.48L60.86 268.48L60.86 273.52L69.66 273.52L69.66 280.16L60.86 280.16L60.86 285.36L70.18 285.36L70.18 292L53.02 292L53.02 261.84L70.18 261.84L70.18 268.48Z"/>
<path d="M74.46 292L79.58 261.84L87.34 261.84L93.38 277.92L99.38 261.84L107.14 261.84L112.26 292L104.46 292L101.86 274.64L94.74 292L91.62 292L84.86 274.64L82.26 292L74.46 292Z"/>
</g>
<g fill="#dddddd" opacity="0.8" stroke="none" vectornator:layerName="Text 3">
<path d="M46.38 471.92C44.5667 469.707 42.3267 468.6 39.66 468.6C38.4867 468.6 37.4 468.813 36.4 469.24C35.4 469.667 34.54 470.247 33.82 470.98C33.1 471.713 32.5333 472.587 32.12 473.6C31.7067 474.613 31.5 475.707 31.5 476.88C31.5 478.08 31.7067 479.187 32.12 480.2C32.5333 481.213 33.1067 482.093 33.84 482.84C34.5733 483.587 35.4333 484.173 36.42 484.6C37.4067 485.027 38.4733 485.24 39.62 485.24C42.1267 485.24 44.38 484.173 46.38 482.04L46.38 491.32L45.58 491.6C44.38 492.027 43.26 492.34 42.22 492.54C41.18 492.74 40.1533 492.84 39.14 492.84C37.06 492.84 35.0667 492.447 33.16 491.66C31.2533 490.873 29.5733 489.767 28.12 488.34C26.6667 486.913 25.5 485.22 24.62 483.26C23.74 481.3 23.3 479.16 23.3 476.84C23.3 474.52 23.7333 472.393 24.6 470.46C25.4667 468.527 26.6267 466.86 28.08 465.46C29.5333 464.06 31.22 462.967 33.14 462.18C35.06 461.393 37.0733 461 39.18 461C40.38 461 41.56 461.127 42.72 461.38C43.88 461.633 45.1 462.027 46.38 462.56L46.38 471.92Z"/>
<path d="M58.62 476.92C58.62 478.12 58.8467 479.227 59.3 480.24C59.7533 481.253 60.3667 482.133 61.14 482.88C61.9133 483.627 62.8133 484.207 63.84 484.62C64.8667 485.033 65.9533 485.24 67.1 485.24C68.2467 485.24 69.3333 485.033 70.36 484.62C71.3867 484.207 72.2933 483.627 73.08 482.88C73.8667 482.133 74.4867 481.253 74.94 480.24C75.3933 479.227 75.62 478.12 75.62 476.92C75.62 475.72 75.3933 474.613 74.94 473.6C74.4867 472.587 73.8667 471.707 73.08 470.96C72.2933 470.213 71.3867 469.633 70.36 469.22C69.3333 468.807 68.2467 468.6 67.1 468.6C65.9533 468.6 64.8667 468.807 63.84 469.22C62.8133 469.633 61.9133 470.213 61.14 470.96C60.3667 471.707 59.7533 472.587 59.3 473.6C58.8467 474.613 58.62 475.72 58.62 476.92ZM50.42 476.92C50.42 474.68 50.8333 472.593 51.66 470.66C52.4867 468.727 53.6333 467.04 55.1 465.6C56.5667 464.16 58.32 463.033 60.36 462.22C62.4 461.407 64.6467 461 67.1 461C69.5267 461 71.7667 461.407 73.82 462.22C75.8733 463.033 77.64 464.16 79.12 465.6C80.6 467.04 81.7533 468.727 82.58 470.66C83.4067 472.593 83.82 474.68 83.82 476.92C83.82 479.16 83.4067 481.247 82.58 483.18C81.7533 485.113 80.6 486.8 79.12 488.24C77.64 489.68 75.8733 490.807 73.82 491.62C71.7667 492.433 69.5267 492.84 67.1 492.84C64.6467 492.84 62.4 492.433 60.36 491.62C58.32 490.807 56.5667 489.68 55.1 488.24C53.6333 486.8 52.4867 485.113 51.66 483.18C50.8333 481.247 50.42 479.16 50.42 476.92Z"/>
<path d="M96.62 475.32L98.1 475.32C99.6467 475.32 100.833 475 101.66 474.36C102.487 473.72 102.9 472.8 102.9 471.6C102.9 470.4 102.487 469.48 101.66 468.84C100.833 468.2 99.6467 467.88 98.1 467.88L96.62 467.88L96.62 475.32ZM113.86 492L104.1 492L96.62 480.4L96.62 492L88.78 492L88.78 461.84L100.98 461.84C102.66 461.84 104.127 462.087 105.38 462.58C106.633 463.073 107.667 463.747 108.48 464.6C109.293 465.453 109.907 466.44 110.32 467.56C110.733 468.68 110.94 469.88 110.94 471.16C110.94 473.453 110.387 475.313 109.28 476.74C108.173 478.167 106.54 479.133 104.38 479.64L113.86 492Z"/>
<path d="M134.3 468.48L124.98 468.48L124.98 473.52L133.78 473.52L133.78 480.16L124.98 480.16L124.98 485.36L134.3 485.36L134.3 492L117.14 492L117.14 461.84L134.3 461.84L134.3 468.48Z"/>
</g>
<g fill="#dddddd" opacity="0.8" stroke="none" vectornator:layerName="Text 4">
<path d="M32.5 685.36L34.3 685.36C35.66 685.36 36.8733 685.147 37.94 684.72C39.0067 684.293 39.9067 683.707 40.64 682.96C41.3733 682.213 41.9333 681.327 42.32 680.3C42.7067 679.273 42.9 678.147 42.9 676.92C42.9 675.72 42.7 674.6 42.3 673.56C41.9 672.52 41.3333 671.627 40.6 670.88C39.8667 670.133 38.9667 669.547 37.9 669.12C36.8333 668.693 35.6333 668.48 34.3 668.48L32.5 668.48L32.5 685.36ZM24.66 661.84L36.26 661.84C38.3133 661.84 40.24 662.253 42.04 663.08C43.84 663.907 45.4133 665.007 46.76 666.38C48.1067 667.753 49.1667 669.353 49.94 671.18C50.7133 673.007 51.1 674.92 51.1 676.92C51.1 678.893 50.72 680.793 49.96 682.62C49.2 684.447 48.1467 686.053 46.8 687.44C45.4533 688.827 43.88 689.933 42.08 690.76C40.28 691.587 38.34 692 36.26 692L24.66 692L24.66 661.84Z"/>
<path d="M73.26 668.48L63.94 668.48L63.94 673.52L72.74 673.52L72.74 680.16L63.94 680.16L63.94 685.36L73.26 685.36L73.26 692L56.1 692L56.1 661.84L73.26 661.84L73.26 668.48Z"/>
<path d="M96.06 668.48L86.74 668.48L86.74 673.52L95.54 673.52L95.54 680.16L86.74 680.16L86.74 685.36L96.06 685.36L96.06 692L78.9 692L78.9 661.84L96.06 661.84L96.06 668.48Z"/>
<path d="M109.54 675.68L112.14 675.68C115.02 675.68 116.46 674.427 116.46 671.92C116.46 669.413 115.02 668.16 112.14 668.16L109.54 668.16L109.54 675.68ZM109.54 692L101.7 692L101.7 661.84L114.18 661.84C117.567 661.84 120.16 662.72 121.96 664.48C123.76 666.24 124.66 668.72 124.66 671.92C124.66 675.12 123.76 677.6 121.96 679.36C120.16 681.12 117.567 682 114.18 682L109.54 682L109.54 692Z"/>
</g>
<g fill="#dddddd" fill-opacity="0.8" opacity="1" stroke="none" vectornator:layerName="Text 5">
<path d="M217.7 798.48L213.3 798.48L213.3 791.84L225.54 791.84L225.54 822L217.7 822L217.7 798.48Z"/>
<path d="M256.98 822L232.7 822L240.18 814.24C242.153 812.187 243.7 810.447 244.82 809.02C245.94 807.593 246.773 806.387 247.32 805.4C247.867 804.413 248.207 803.613 248.34 803C248.473 802.387 248.54 801.867 248.54 801.44C248.54 800.987 248.467 800.547 248.32 800.12C248.173 799.693 247.953 799.313 247.66 798.98C247.367 798.647 247.013 798.38 246.6 798.18C246.187 797.98 245.7 797.88 245.14 797.88C244.073 797.88 243.24 798.227 242.64 798.92C242.04 799.613 241.74 800.48 241.74 801.52C241.74 801.813 241.78 802.24 241.86 802.8L233.3 802.8C233.3 801.04 233.587 799.44 234.16 798C234.733 796.56 235.54 795.32 236.58 794.28C237.62 793.24 238.853 792.44 240.28 791.88C241.707 791.32 243.273 791.04 244.98 791.04C246.66 791.04 248.213 791.307 249.64 791.84C251.067 792.373 252.3 793.12 253.34 794.08C254.38 795.04 255.193 796.18 255.78 797.5C256.367 798.82 256.66 800.253 256.66 801.8C256.66 803.453 256.307 804.98 255.6 806.38C254.893 807.78 253.767 809.213 252.22 810.68L247.22 815.36L256.98 815.36L256.98 822Z"/>
<path d="M260.9 804.68C260.9 804.04 261.02 803.433 261.26 802.86C261.5 802.287 261.833 801.787 262.26 801.36C262.687 800.933 263.187 800.6 263.76 800.36C264.333 800.12 264.94 800 265.58 800C266.22 800 266.827 800.12 267.4 800.36C267.973 800.6 268.473 800.933 268.9 801.36C269.327 801.787 269.66 802.287 269.9 802.86C270.14 803.433 270.26 804.04 270.26 804.68C270.26 805.32 270.14 805.927 269.9 806.5C269.66 807.073 269.327 807.573 268.9 808C268.473 808.427 267.973 808.76 267.4 809C266.827 809.24 266.22 809.36 265.58 809.36C264.94 809.36 264.333 809.24 263.76 809C263.187 808.76 262.687 808.427 262.26 808C261.833 807.573 261.5 807.073 261.26 806.5C261.02 805.927 260.9 805.32 260.9 804.68ZM260.9 818.16C260.9 817.52 261.02 816.913 261.26 816.34C261.5 815.767 261.833 815.267 262.26 814.84C262.687 814.413 263.187 814.08 263.76 813.84C264.333 813.6 264.94 813.48 265.58 813.48C266.22 813.48 266.827 813.6 267.4 813.84C267.973 814.08 268.473 814.413 268.9 814.84C269.327 815.267 269.66 815.767 269.9 816.34C270.14 816.913 270.26 817.52 270.26 818.16C270.26 818.8 270.14 819.407 269.9 819.98C269.66 820.553 269.327 821.053 268.9 821.48C268.473 821.907 267.973 822.24 267.4 822.48C266.827 822.72 266.22 822.84 265.58 822.84C264.94 822.84 264.333 822.72 263.76 822.48C263.187 822.24 262.687 821.907 262.26 821.48C261.833 821.053 261.5 820.553 261.26 819.98C261.02 819.407 260.9 818.8 260.9 818.16Z"/>
<path d="M282.98 798.48L278.58 798.48L278.58 791.84L290.82 791.84L290.82 822L282.98 822L282.98 798.48Z"/>
<path d="M306.54 806.88C306.54 808.213 306.66 809.427 306.9 810.52C307.14 811.613 307.48 812.56 307.92 813.36C308.36 814.16 308.887 814.78 309.5 815.22C310.113 815.66 310.807 815.88 311.58 815.88C312.327 815.88 313.013 815.66 313.64 815.22C314.267 814.78 314.793 814.16 315.22 813.36C315.647 812.56 315.98 811.613 316.22 810.52C316.46 809.427 316.58 808.213 316.58 806.88C316.58 805.573 316.46 804.367 316.22 803.26C315.98 802.153 315.647 801.207 315.22 800.42C314.793 799.633 314.267 799.02 313.64 798.58C313.013 798.14 312.327 797.92 311.58 797.92C310.807 797.92 310.113 798.14 309.5 798.58C308.887 799.02 308.36 799.633 307.92 800.42C307.48 801.207 307.14 802.153 306.9 803.26C306.66 804.367 306.54 805.573 306.54 806.88ZM298.78 806.88C298.78 804.48 299.093 802.3 299.72 800.34C300.347 798.38 301.227 796.707 302.36 795.32C303.493 793.933 304.84 792.86 306.4 792.1C307.96 791.34 309.687 790.96 311.58 790.96C313.447 790.96 315.167 791.34 316.74 792.1C318.313 792.86 319.66 793.933 320.78 795.32C321.9 796.707 322.773 798.38 323.4 800.34C324.027 802.3 324.34 804.48 324.34 806.88C324.34 809.28 324.027 811.46 323.4 813.42C322.773 815.38 321.9 817.06 320.78 818.46C319.66 819.86 318.313 820.94 316.74 821.7C315.167 822.46 313.447 822.84 311.58 822.84C309.687 822.84 307.96 822.46 306.4 821.7C304.84 820.94 303.493 819.86 302.36 818.46C301.227 817.06 300.347 815.38 299.72 813.42C299.093 811.46 298.78 809.28 298.78 806.88Z"/>
<path d="M334.38 811.68C334.38 812.347 334.5 812.967 334.74 813.54C334.98 814.113 335.307 814.613 335.72 815.04C336.133 815.467 336.627 815.8 337.2 816.04C337.773 816.28 338.393 816.4 339.06 816.4C339.7 816.4 340.307 816.28 340.88 816.04C341.453 815.8 341.947 815.467 342.36 815.04C342.773 814.613 343.107 814.12 343.36 813.56C343.613 813 343.74 812.4 343.74 811.76C343.74 811.12 343.613 810.513 343.36 809.94C343.107 809.367 342.773 808.867 342.36 808.44C341.947 808.013 341.453 807.68 340.88 807.44C340.307 807.2 339.7 807.08 339.06 807.08C338.393 807.08 337.773 807.2 337.2 807.44C336.627 807.68 336.133 808.013 335.72 808.44C335.307 808.867 334.98 809.353 334.74 809.9C334.5 810.447 334.38 811.04 334.38 811.68ZM343.5 801.48L350.78 801.48L350.78 822L343.5 822L343.5 819.72C341.953 821.667 339.86 822.64 337.22 822.64C335.727 822.64 334.353 822.367 333.1 821.82C331.847 821.273 330.753 820.507 329.82 819.52C328.887 818.533 328.16 817.373 327.64 816.04C327.12 814.707 326.86 813.253 326.86 811.68C326.86 810.213 327.113 808.82 327.62 807.5C328.127 806.18 328.833 805.027 329.74 804.04C330.647 803.053 331.727 802.273 332.98 801.7C334.233 801.127 335.62 800.84 337.14 800.84C339.7 800.84 341.82 801.733 343.5 803.52L343.5 801.48Z"/>
<path d="M355.7 801.48L362.94 801.48L362.94 804C364.913 802.107 367.127 801.16 369.58 801.16C372.62 801.16 374.94 802.44 376.54 805C378.167 802.413 380.487 801.12 383.5 801.12C384.46 801.12 385.367 801.26 386.22 801.54C387.073 801.82 387.807 802.26 388.42 802.86C389.033 803.46 389.52 804.24 389.88 805.2C390.24 806.16 390.42 807.32 390.42 808.68L390.42 822L383.18 822L383.18 811.88C383.18 810.84 383.107 809.987 382.96 809.32C382.813 808.653 382.6 808.133 382.32 807.76C382.04 807.387 381.713 807.133 381.34 807C380.967 806.867 380.567 806.8 380.14 806.8C377.82 806.8 376.66 808.493 376.66 811.88L376.66 822L369.42 822L369.42 811.88C369.42 810.84 369.353 809.98 369.22 809.3C369.087 808.62 368.893 808.08 368.64 807.68C368.387 807.28 368.06 807.007 367.66 806.86C367.26 806.713 366.793 806.64 366.26 806.64C365.807 806.64 365.38 806.707 364.98 806.84C364.58 806.973 364.227 807.233 363.92 807.62C363.613 808.007 363.373 808.54 363.2 809.22C363.027 809.9 362.94 810.787 362.94 811.88L362.94 822L355.7 822L355.7 801.48Z"/>
</g>
<g fill="#dddddd" fill-opacity="0.8" opacity="1" stroke="none" vectornator:layerName="Text 7">
<path d="M830.5 803.6C830.713 803.627 830.893 803.64 831.04 803.64C831.187 803.64 831.313 803.64 831.42 803.64C832.407 803.64 833.207 803.347 833.82 802.76C834.433 802.173 834.74 801.413 834.74 800.48C834.74 799.573 834.453 798.84 833.88 798.28C833.307 797.72 832.567 797.44 831.66 797.44C830.7 797.44 829.927 797.76 829.34 798.4C828.753 799.04 828.46 799.867 828.46 800.88L821.22 800.88C821.407 799.307 821.8 797.907 822.4 796.68C823 795.453 823.767 794.42 824.7 793.58C825.633 792.74 826.727 792.1 827.98 791.66C829.233 791.22 830.62 791 832.14 791C833.633 791 834.987 791.207 836.2 791.62C837.413 792.033 838.453 792.62 839.32 793.38C840.187 794.14 840.853 795.06 841.32 796.14C841.787 797.22 842.02 798.427 842.02 799.76C842.02 801.2 841.747 802.38 841.2 803.3C840.653 804.22 839.873 805.013 838.86 805.68C840.407 806.16 841.613 807.02 842.48 808.26C843.347 809.5 843.78 811.027 843.78 812.84C843.78 814.333 843.487 815.693 842.9 816.92C842.313 818.147 841.493 819.2 840.44 820.08C839.387 820.96 838.133 821.64 836.68 822.12C835.227 822.6 833.633 822.84 831.9 822.84C829.58 822.84 827.487 822.387 825.62 821.48C823.753 820.573 822.26 819.133 821.14 817.16C820.633 816.28 820.293 815.4 820.12 814.52C819.947 813.64 819.86 812.747 819.86 811.84L827.62 811.84C827.673 813.253 828.087 814.327 828.86 815.06C829.633 815.793 830.673 816.16 831.98 816.16C833.367 816.16 834.38 815.787 835.02 815.04C835.66 814.293 835.98 813.373 835.98 812.28C835.98 810.973 835.593 809.987 834.82 809.32C834.047 808.653 833.127 808.32 832.06 808.32C831.793 808.32 831.54 808.34 831.3 808.38C831.06 808.42 830.793 808.467 830.5 808.52L830.5 803.6Z"/>
<path d="M847.86 804.68C847.86 804.04 847.98 803.433 848.22 802.86C848.46 802.287 848.793 801.787 849.22 801.36C849.647 800.933 850.147 800.6 850.72 800.36C851.293 800.12 851.9 800 852.54 800C853.18 800 853.787 800.12 854.36 800.36C854.933 800.6 855.433 800.933 855.86 801.36C856.287 801.787 856.62 802.287 856.86 802.86C857.1 803.433 857.22 804.04 857.22 804.68C857.22 805.32 857.1 805.927 856.86 806.5C856.62 807.073 856.287 807.573 855.86 808C855.433 808.427 854.933 808.76 854.36 809C853.787 809.24 853.18 809.36 852.54 809.36C851.9 809.36 851.293 809.24 850.72 809C850.147 808.76 849.647 808.427 849.22 808C848.793 807.573 848.46 807.073 848.22 806.5C847.98 805.927 847.86 805.32 847.86 804.68ZM847.86 818.16C847.86 817.52 847.98 816.913 848.22 816.34C848.46 815.767 848.793 815.267 849.22 814.84C849.647 814.413 850.147 814.08 850.72 813.84C851.293 813.6 851.9 813.48 852.54 813.48C853.18 813.48 853.787 813.6 854.36 813.84C854.933 814.08 855.433 814.413 855.86 814.84C856.287 815.267 856.62 815.767 856.86 816.34C857.1 816.913 857.22 817.52 857.22 818.16C857.22 818.8 857.1 819.407 856.86 819.98C856.62 820.553 856.287 821.053 855.86 821.48C855.433 821.907 854.933 822.24 854.36 822.48C853.787 822.72 853.18 822.84 852.54 822.84C851.9 822.84 851.293 822.72 850.72 822.48C850.147 822.24 849.647 821.907 849.22 821.48C848.793 821.053 848.46 820.553 848.22 819.98C847.98 819.407 847.86 818.8 847.86 818.16Z"/>
<path d="M881.74 798.48L871.3 798.48L870.78 801.8C871.26 801.747 871.7 801.7 872.1 801.66C872.5 801.62 872.913 801.6 873.34 801.6C874.86 801.6 876.273 801.867 877.58 802.4C878.887 802.933 880.007 803.667 880.94 804.6C881.873 805.533 882.607 806.653 883.14 807.96C883.673 809.267 883.94 810.693 883.94 812.24C883.94 813.867 883.64 815.333 883.04 816.64C882.44 817.947 881.593 819.06 880.5 819.98C879.407 820.9 878.073 821.607 876.5 822.1C874.927 822.593 873.18 822.84 871.26 822.84C869.447 822.84 867.72 822.62 866.08 822.18C864.44 821.74 862.9 821.067 861.46 820.16L862.62 812.8C863.953 813.947 865.313 814.82 866.7 815.42C868.087 816.02 869.407 816.32 870.66 816.32C872.26 816.32 873.527 815.887 874.46 815.02C875.393 814.153 875.86 813.08 875.86 811.8C875.86 810.307 875.233 809.1 873.98 808.18C872.727 807.26 871.087 806.8 869.06 806.8C868.153 806.8 867.22 806.9 866.26 807.1C865.3 807.3 864.353 807.613 863.42 808.04L865.94 791.84L881.74 791.84L881.74 798.48Z"/>
<path d="M895.1 806.88C895.1 808.213 895.22 809.427 895.46 810.52C895.7 811.613 896.04 812.56 896.48 813.36C896.92 814.16 897.447 814.78 898.06 815.22C898.673 815.66 899.367 815.88 900.14 815.88C900.887 815.88 901.573 815.66 902.2 815.22C902.827 814.78 903.353 814.16 903.78 813.36C904.207 812.56 904.54 811.613 904.78 810.52C905.02 809.427 905.14 808.213 905.14 806.88C905.14 805.573 905.02 804.367 904.78 803.26C904.54 802.153 904.207 801.207 903.78 800.42C903.353 799.633 902.827 799.02 902.2 798.58C901.573 798.14 900.887 797.92 900.14 797.92C899.367 797.92 898.673 798.14 898.06 798.58C897.447 799.02 896.92 799.633 896.48 800.42C896.04 801.207 895.7 802.153 895.46 803.26C895.22 804.367 895.1 805.573 895.1 806.88ZM887.34 806.88C887.34 804.48 887.653 802.3 888.28 800.34C888.907 798.38 889.787 796.707 890.92 795.32C892.053 793.933 893.4 792.86 894.96 792.1C896.52 791.34 898.247 790.96 900.14 790.96C902.007 790.96 903.727 791.34 905.3 792.1C906.873 792.86 908.22 793.933 909.34 795.32C910.46 796.707 911.333 798.38 911.96 800.34C912.587 802.3 912.9 804.48 912.9 806.88C912.9 809.28 912.587 811.46 911.96 813.42C911.333 815.38 910.46 817.06 909.34 818.46C908.22 819.86 906.873 820.94 905.3 821.7C903.727 822.46 902.007 822.84 900.14 822.84C898.247 822.84 896.52 822.46 894.96 821.7C893.4 820.94 892.053 819.86 890.92 818.46C889.787 817.06 888.907 815.38 888.28 813.42C887.653 811.46 887.34 809.28 887.34 806.88Z"/>
<path d="M922.94 811.68C922.94 812.347 923.06 812.967 923.3 813.54C923.54 814.113 923.867 814.613 924.28 815.04C924.693 815.467 925.187 815.8 925.76 816.04C926.333 816.28 926.953 816.4 927.62 816.4C928.26 816.4 928.867 816.28 929.44 816.04C930.013 815.8 930.507 815.467 930.92 815.04C931.333 814.613 931.667 814.12 931.92 813.56C932.173 813 932.3 812.4 932.3 811.76C932.3 811.12 932.173 810.513 931.92 809.94C931.667 809.367 931.333 808.867 930.92 808.44C930.507 808.013 930.013 807.68 929.44 807.44C928.867 807.2 928.26 807.08 927.62 807.08C926.953 807.08 926.333 807.2 925.76 807.44C925.187 807.68 924.693 808.013 924.28 808.44C923.867 808.867 923.54 809.353 923.3 809.9C923.06 810.447 922.94 811.04 922.94 811.68ZM932.06 801.48L939.34 801.48L939.34 822L932.06 822L932.06 819.72C930.513 821.667 928.42 822.64 925.78 822.64C924.287 822.64 922.913 822.367 921.66 821.82C920.407 821.273 919.313 820.507 918.38 819.52C917.447 818.533 916.72 817.373 916.2 816.04C915.68 814.707 915.42 813.253 915.42 811.68C915.42 810.213 915.673 808.82 916.18 807.5C916.687 806.18 917.393 805.027 918.3 804.04C919.207 803.053 920.287 802.273 921.54 801.7C922.793 801.127 924.18 800.84 925.7 800.84C928.26 800.84 930.38 801.733 932.06 803.52L932.06 801.48Z"/>
<path d="M944.26 801.48L951.5 801.48L951.5 804C953.473 802.107 955.687 801.16 958.14 801.16C961.18 801.16 963.5 802.44 965.1 805C966.727 802.413 969.047 801.12 972.06 801.12C973.02 801.12 973.927 801.26 974.78 801.54C975.633 801.82 976.367 802.26 976.98 802.86C977.593 803.46 978.08 804.24 978.44 805.2C978.8 806.16 978.98 807.32 978.98 808.68L978.98 822L971.74 822L971.74 811.88C971.74 810.84 971.667 809.987 971.52 809.32C971.373 808.653 971.16 808.133 970.88 807.76C970.6 807.387 970.273 807.133 969.9 807C969.527 806.867 969.127 806.8 968.7 806.8C966.38 806.8 965.22 808.493 965.22 811.88L965.22 822L957.98 822L957.98 811.88C957.98 810.84 957.913 809.98 957.78 809.3C957.647 808.62 957.453 808.08 957.2 807.68C956.947 807.28 956.62 807.007 956.22 806.86C955.82 806.713 955.353 806.64 954.82 806.64C954.367 806.64 953.94 806.707 953.54 806.84C953.14 806.973 952.787 807.233 952.48 807.62C952.173 808.007 951.933 808.54 951.76 809.22C951.587 809.9 951.5 810.787 951.5 811.88L951.5 822L944.26 822L944.26 801.48Z"/>
</g>
<g fill="#dddddd" fill-opacity="0.8" opacity="1" stroke="none" vectornator:layerName="Text 9">
<path d="M1435.06 798.48L1422.46 798.48L1422.46 791.84L1447.22 791.84L1429.94 822L1421.3 822L1435.06 798.48Z"/>
<path d="M1447.14 804.68C1447.14 804.04 1447.26 803.433 1447.5 802.86C1447.74 802.287 1448.07 801.787 1448.5 801.36C1448.93 800.933 1449.43 800.6 1450 800.36C1450.57 800.12 1451.18 800 1451.82 800C1452.46 800 1453.07 800.12 1453.64 800.36C1454.21 800.6 1454.71 800.933 1455.14 801.36C1455.57 801.787 1455.9 802.287 1456.14 802.86C1456.38 803.433 1456.5 804.04 1456.5 804.68C1456.5 805.32 1456.38 805.927 1456.14 806.5C1455.9 807.073 1455.57 807.573 1455.14 808C1454.71 808.427 1454.21 808.76 1453.64 809C1453.07 809.24 1452.46 809.36 1451.82 809.36C1451.18 809.36 1450.57 809.24 1450 809C1449.43 808.76 1448.93 808.427 1448.5 808C1448.07 807.573 1447.74 807.073 1447.5 806.5C1447.26 805.927 1447.14 805.32 1447.14 804.68ZM1447.14 818.16C1447.14 817.52 1447.26 816.913 1447.5 816.34C1447.74 815.767 1448.07 815.267 1448.5 814.84C1448.93 814.413 1449.43 814.08 1450 813.84C1450.57 813.6 1451.18 813.48 1451.82 813.48C1452.46 813.48 1453.07 813.6 1453.64 813.84C1454.21 814.08 1454.71 814.413 1455.14 814.84C1455.57 815.267 1455.9 815.767 1456.14 816.34C1456.38 816.913 1456.5 817.52 1456.5 818.16C1456.5 818.8 1456.38 819.407 1456.14 819.98C1455.9 820.553 1455.57 821.053 1455.14 821.48C1454.71 821.907 1454.21 822.24 1453.64 822.48C1453.07 822.72 1452.46 822.84 1451.82 822.84C1451.18 822.84 1450.57 822.72 1450 822.48C1449.43 822.24 1448.93 821.907 1448.5 821.48C1448.07 821.053 1447.74 820.553 1447.5 819.98C1447.26 819.407 1447.14 818.8 1447.14 818.16Z"/>
<path d="M1470.58 803.6C1470.79 803.627 1470.97 803.64 1471.12 803.64C1471.27 803.64 1471.39 803.64 1471.5 803.64C1472.49 803.64 1473.29 803.347 1473.9 802.76C1474.51 802.173 1474.82 801.413 1474.82 800.48C1474.82 799.573 1474.53 798.84 1473.96 798.28C1473.39 797.72 1472.65 797.44 1471.74 797.44C1470.78 797.44 1470.01 797.76 1469.42 798.4C1468.83 799.04 1468.54 799.867 1468.54 800.88L1461.3 800.88C1461.49 799.307 1461.88 797.907 1462.48 796.68C1463.08 795.453 1463.85 794.42 1464.78 793.58C1465.71 792.74 1466.81 792.1 1468.06 791.66C1469.31 791.22 1470.7 791 1472.22 791C1473.71 791 1475.07 791.207 1476.28 791.62C1477.49 792.033 1478.53 792.62 1479.4 793.38C1480.27 794.14 1480.93 795.06 1481.4 796.14C1481.87 797.22 1482.1 798.427 1482.1 799.76C1482.1 801.2 1481.83 802.38 1481.28 803.3C1480.73 804.22 1479.95 805.013 1478.94 805.68C1480.49 806.16 1481.69 807.02 1482.56 808.26C1483.43 809.5 1483.86 811.027 1483.86 812.84C1483.86 814.333 1483.57 815.693 1482.98 816.92C1482.39 818.147 1481.57 819.2 1480.52 820.08C1479.47 820.96 1478.21 821.64 1476.76 822.12C1475.31 822.6 1473.71 822.84 1471.98 822.84C1469.66 822.84 1467.57 822.387 1465.7 821.48C1463.83 820.573 1462.34 819.133 1461.22 817.16C1460.71 816.28 1460.37 815.4 1460.2 814.52C1460.03 813.64 1459.94 812.747 1459.94 811.84L1467.7 811.84C1467.75 813.253 1468.17 814.327 1468.94 815.06C1469.71 815.793 1470.75 816.16 1472.06 816.16C1473.45 816.16 1474.46 815.787 1475.1 815.04C1475.74 814.293 1476.06 813.373 1476.06 812.28C1476.06 810.973 1475.67 809.987 1474.9 809.32C1474.13 808.653 1473.21 808.32 1472.14 808.32C1471.87 808.32 1471.62 808.34 1471.38 808.38C1471.14 808.42 1470.87 808.467 1470.58 808.52L1470.58 803.6Z"/>
<path d="M1494.38 806.88C1494.38 808.213 1494.5 809.427 1494.74 810.52C1494.98 811.613 1495.32 812.56 1495.76 813.36C1496.2 814.16 1496.73 814.78 1497.34 815.22C1497.95 815.66 1498.65 815.88 1499.42 815.88C1500.17 815.88 1500.85 815.66 1501.48 815.22C1502.11 814.78 1502.63 814.16 1503.06 813.36C1503.49 812.56 1503.82 811.613 1504.06 810.52C1504.3 809.427 1504.42 808.213 1504.42 806.88C1504.42 805.573 1504.3 804.367 1504.06 803.26C1503.82 802.153 1503.49 801.207 1503.06 800.42C1502.63 799.633 1502.11 799.02 1501.48 798.58C1500.85 798.14 1500.17 797.92 1499.42 797.92C1498.65 797.92 1497.95 798.14 1497.34 798.58C1496.73 799.02 1496.2 799.633 1495.76 800.42C1495.32 801.207 1494.98 802.153 1494.74 803.26C1494.5 804.367 1494.38 805.573 1494.38 806.88ZM1486.62 806.88C1486.62 804.48 1486.93 802.3 1487.56 800.34C1488.19 798.38 1489.07 796.707 1490.2 795.32C1491.33 793.933 1492.68 792.86 1494.24 792.1C1495.8 791.34 1497.53 790.96 1499.42 790.96C1501.29 790.96 1503.01 791.34 1504.58 792.1C1506.15 792.86 1507.5 793.933 1508.62 795.32C1509.74 796.707 1510.61 798.38 1511.24 800.34C1511.87 802.3 1512.18 804.48 1512.18 806.88C1512.18 809.28 1511.87 811.46 1511.24 813.42C1510.61 815.38 1509.74 817.06 1508.62 818.46C1507.5 819.86 1506.15 820.94 1504.58 821.7C1503.01 822.46 1501.29 822.84 1499.42 822.84C1497.53 822.84 1495.8 822.46 1494.24 821.7C1492.68 820.94 1491.33 819.86 1490.2 818.46C1489.07 817.06 1488.19 815.38 1487.56 813.42C1486.93 811.46 1486.62 809.28 1486.62 806.88Z"/>
<path d="M1522.22 811.68C1522.22 812.347 1522.34 812.967 1522.58 813.54C1522.82 814.113 1523.15 814.613 1523.56 815.04C1523.97 815.467 1524.47 815.8 1525.04 816.04C1525.61 816.28 1526.23 816.4 1526.9 816.4C1527.54 816.4 1528.15 816.28 1528.72 816.04C1529.29 815.8 1529.79 815.467 1530.2 815.04C1530.61 814.613 1530.95 814.12 1531.2 813.56C1531.45 813 1531.58 812.4 1531.58 811.76C1531.58 811.12 1531.45 810.513 1531.2 809.94C1530.95 809.367 1530.61 808.867 1530.2 808.44C1529.79 808.013 1529.29 807.68 1528.72 807.44C1528.15 807.2 1527.54 807.08 1526.9 807.08C1526.23 807.08 1525.61 807.2 1525.04 807.44C1524.47 807.68 1523.97 808.013 1523.56 808.44C1523.15 808.867 1522.82 809.353 1522.58 809.9C1522.34 810.447 1522.22 811.04 1522.22 811.68ZM1531.34 801.48L1538.62 801.48L1538.62 822L1531.34 822L1531.34 819.72C1529.79 821.667 1527.7 822.64 1525.06 822.64C1523.57 822.64 1522.19 822.367 1520.94 821.82C1519.69 821.273 1518.59 820.507 1517.66 819.52C1516.73 818.533 1516 817.373 1515.48 816.04C1514.96 814.707 1514.7 813.253 1514.7 811.68C1514.7 810.213 1514.95 808.82 1515.46 807.5C1515.97 806.18 1516.67 805.027 1517.58 804.04C1518.49 803.053 1519.57 802.273 1520.82 801.7C1522.07 801.127 1523.46 800.84 1524.98 800.84C1527.54 800.84 1529.66 801.733 1531.34 803.52L1531.34 801.48Z"/>
<path d="M1543.54 801.48L1550.78 801.48L1550.78 804C1552.75 802.107 1554.97 801.16 1557.42 801.16C1560.46 801.16 1562.78 802.44 1564.38 805C1566.01 802.413 1568.33 801.12 1571.34 801.12C1572.3 801.12 1573.21 801.26 1574.06 801.54C1574.91 801.82 1575.65 802.26 1576.26 802.86C1576.87 803.46 1577.36 804.24 1577.72 805.2C1578.08 806.16 1578.26 807.32 1578.26 808.68L1578.26 822L1571.02 822L1571.02 811.88C1571.02 810.84 1570.95 809.987 1570.8 809.32C1570.65 808.653 1570.44 808.133 1570.16 807.76C1569.88 807.387 1569.55 807.133 1569.18 807C1568.81 806.867 1568.41 806.8 1567.98 806.8C1565.66 806.8 1564.5 808.493 1564.5 811.88L1564.5 822L1557.26 822L1557.26 811.88C1557.26 810.84 1557.19 809.98 1557.06 809.3C1556.93 808.62 1556.73 808.08 1556.48 807.68C1556.23 807.28 1555.9 807.007 1555.5 806.86C1555.1 806.713 1554.63 806.64 1554.1 806.64C1553.65 806.64 1553.22 806.707 1552.82 806.84C1552.42 806.973 1552.07 807.233 1551.76 807.62C1551.45 808.007 1551.21 808.54 1551.04 809.22C1550.87 809.9 1550.78 810.787 1550.78 811.88L1550.78 822L1543.54 822L1543.54 801.48Z"/>
</g>
<path d="M300 750L300 710" fill="none" opacity="1" stroke="#dddddd" stroke-linecap="round" stroke-linejoin="round" stroke-opacity="0.8" stroke-width="10" vectornator:layerName="Line 2"/>
<path d="M900 750L900 710" fill="none" opacity="1" stroke="#dddddd" stroke-linecap="round" stroke-linejoin="round" stroke-opacity="0.8" stroke-width="10" vectornator:layerName="Line 3"/>
<path d="M1500 750L1500 710" fill="none" opacity="1" stroke="#dddddd" stroke-linecap="round" stroke-linejoin="round" stroke-opacity="0.8" stroke-width="10" vectornator:layerName="Line 4"/>
<path d="M1300 750L1300 730" fill="none" opacity="1" stroke="#dddddd" stroke-linecap="round" stroke-linejoin="round" stroke-opacity="0.8" stroke-width="10" vectornator:layerName="Line 5"/>
<path d="M700 750L700 730" fill="none" opacity="1" stroke="#dddddd" stroke-linecap="round" stroke-linejoin="round" stroke-opacity="0.8" stroke-width="10" vectornator:layerName="Line 6"/>
<path d="M500 750L500 730" fill="none" opacity="1" stroke="#dddddd" stroke-linecap="round" stroke-linejoin="round" stroke-opacity="0.8" stroke-width="10" vectornator:layerName="Line 7"/>
<path d="M1100 750L1100 730" fill="none" opacity="1" stroke="#dddddd" stroke-linecap="round" stroke-linejoin="round" stroke-opacity="0.8" stroke-width="10" vectornator:layerName="Line 8"/>
</g>
</svg>
